<svg width="2048" height="1142" viewBox="0 0 2048 1142" fill="none" xmlns="http://www.w3.org/2000/svg">
<path d="M430.575 747.249C420.34 751.723 408.826 756.196 396.033 760.669C381.96 765.143 369.486 765.462 358.612 761.628C354.134 761.628 349.337 758.113 344.219 751.084C339.102 744.054 335.584 738.942 333.665 735.747C331.746 731.913 329.507 727.12 326.948 721.368C323.75 714.978 322.47 709.546 323.11 705.073C323.11 702.517 325.988 697.404 331.746 689.736C338.142 682.067 344.859 674.079 351.895 665.772C359.571 657.464 366.608 649.796 373.004 642.766C380.041 635.737 384.838 630.944 387.397 628.388C389.316 626.471 393.794 621.998 400.83 614.968C407.867 607.3 415.543 599.631 423.859 591.963C432.174 583.655 439.851 576.306 446.887 569.916C453.923 563.525 458.401 560.33 460.32 560.33C463.518 560.33 467.676 562.886 472.794 567.999C478.551 572.472 482.389 575.667 484.308 577.584C485.587 580.14 488.785 584.614 493.903 591.004C499.02 596.755 500.939 601.229 499.66 604.424V606.341C498.381 608.897 496.462 611.134 493.903 613.051C491.344 614.329 489.105 615.927 487.186 617.844C482.069 622.956 477.271 627.749 472.794 632.222C468.956 636.695 464.478 641.488 459.361 646.601L413.304 701.239L390.276 727.12C404.349 724.564 420.34 718.812 438.251 709.866C453.603 702.836 467.037 696.126 478.551 689.736C491.984 673.76 504.777 657.464 516.931 640.849C539.959 608.897 560.429 581.419 578.34 558.413C580.898 555.857 585.056 556.496 590.814 560.33C596.571 563.525 602.328 568.318 608.085 574.709C613.842 581.099 618.639 587.489 622.477 593.88C626.955 599.631 628.234 603.465 626.315 605.382C594.971 646.281 563.947 686.541 533.243 726.161C502.539 765.143 467.676 801.248 428.656 834.478C400.511 858.762 370.766 879.531 339.422 896.785C308.078 914.039 274.175 926.181 237.714 933.21C234.515 931.293 230.677 926.82 226.199 919.79C221.082 912.761 216.924 905.412 213.726 897.743C209.888 889.436 207.969 881.768 207.969 874.738C207.329 867.709 210.208 863.235 216.604 861.318C219.163 862.596 223.001 863.555 228.118 864.194C232.596 864.194 237.394 864.194 242.511 864.194C247.629 863.555 252.746 862.916 257.863 862.277C262.341 861.638 265.859 860.999 268.418 860.36C297.843 854.608 327.268 839.91 356.693 816.266C382.28 795.816 406.907 772.811 430.575 747.249Z" fill="white"/>
<path d="M697.319 647.47L830.691 574.62C833.89 573.342 837.088 572.383 840.286 571.744C844.124 571.105 847.003 572.383 848.922 575.578L877.707 612.962V613.921L753.93 660.89L788.473 730.865C802.546 726.392 814.38 721.599 823.975 716.487C834.209 711.374 844.124 706.262 853.719 701.15C863.315 696.038 872.59 690.925 881.545 685.813C888.582 681.34 892.74 679.742 894.019 681.02C895.298 682.298 898.816 685.493 904.574 690.606C904.574 691.245 903.934 693.162 902.655 696.357L894.019 702.108C880.586 712.333 867.792 722.238 855.638 731.824C843.485 740.77 830.691 748.758 817.258 755.788C804.465 762.817 790.712 767.93 775.999 771.125C761.287 774.32 744.975 774.959 727.064 773.042C725.145 774.32 722.586 772.722 719.388 768.249C716.829 763.776 714.271 758.663 711.712 752.912C709.153 747.161 706.914 741.729 704.995 736.617C703.076 731.504 701.797 728.309 701.157 727.031C696.04 714.889 691.242 701.469 686.765 686.771L657.979 699.233H657.02L591.773 772.083C591.133 772.722 590.174 772.403 588.894 771.125C582.498 768.569 576.421 761.859 570.664 750.995C564.267 740.131 561.389 731.185 562.028 724.155C562.028 721.599 569.704 712.014 585.056 695.399C600.409 678.783 619.599 658.654 642.627 635.009C665.655 611.365 690.603 586.123 717.469 559.283C744.975 532.443 764.805 512.952 776.959 500.811C789.113 488.03 795.829 481.639 797.108 481.639C799.027 481.639 801.906 484.196 805.744 489.308C810.222 494.42 814.06 500.172 817.258 506.562C821.096 512.952 823.655 519.343 824.934 525.733C826.853 531.485 826.853 534.999 824.934 536.277C805.104 552.253 790.712 564.715 781.756 573.661L697.319 647.47Z" fill="white"/>
<path d="M1010.85 725.114L988.778 742.368C981.742 746.841 973.746 751.634 964.79 756.746C955.835 761.859 946.56 765.373 936.964 767.29C928.009 769.208 919.373 768.888 911.058 766.332C903.382 763.137 897.305 756.107 892.827 745.244L876.515 704.984C873.317 697.316 872.357 689.328 873.637 681.02C875.556 672.713 878.754 664.724 883.232 657.056C887.71 649.387 892.827 642.358 898.584 635.968C904.981 628.938 911.058 622.867 916.815 617.755C922.572 612.643 929.288 606.572 936.964 599.542C945.28 592.513 953.916 586.123 962.871 580.371C971.827 574.62 980.782 570.147 989.738 566.951C999.333 563.117 1008.61 561.839 1017.56 563.117C1031 565.034 1043.15 572.383 1054.02 585.164C1064.9 597.945 1074.17 609.767 1081.85 620.631C1083.77 618.714 1087.61 614.879 1093.36 609.128C1099.12 602.738 1105.2 596.347 1111.6 589.957C1118.63 583.566 1125.03 577.815 1130.79 572.703C1137.18 567.59 1141.02 565.034 1142.3 565.034C1145.5 565.034 1149.66 567.59 1154.77 572.703C1160.53 577.176 1164.37 580.371 1166.29 582.288C1168.21 584.205 1171.72 588.04 1176.84 593.791C1181.96 599.542 1183.88 604.016 1182.6 607.211C1182.6 608.489 1182.28 609.447 1181.64 610.087C1180.36 612.004 1178.44 614.24 1175.88 616.796C1173.96 618.714 1172.04 620.631 1170.13 622.548C1158.61 632.133 1149.34 641.719 1142.3 651.305L1094.32 704.026L1072.26 730.865C1079.93 729.587 1088.89 727.031 1099.12 723.197C1109.36 718.723 1119.59 713.931 1129.83 708.818C1140.06 703.706 1149.98 698.594 1159.57 693.481C1169.17 688.369 1177.48 683.896 1184.52 680.061C1191.55 674.949 1195.71 673.352 1196.99 675.269C1198.27 676.547 1202.11 680.061 1208.51 685.813C1209.15 687.091 1208.51 688.688 1206.59 690.606C1203.39 693.801 1200.51 695.718 1197.95 696.357C1189.64 702.747 1178.76 710.735 1165.33 720.321C1151.89 729.268 1137.5 737.895 1122.15 746.202C1107.44 753.871 1092.73 759.942 1078.01 764.415C1063.3 768.888 1050.83 769.208 1040.59 765.373C1038.03 765.373 1035.15 763.776 1031.96 760.581C1029.4 757.385 1026.52 753.871 1023.32 750.036C1020.76 745.563 1018.2 741.09 1015.64 736.617C1013.73 731.504 1012.13 727.67 1010.85 725.114ZM932.167 704.984C925.77 713.931 923.212 720.321 924.491 724.155C926.41 727.99 929.928 730.226 935.045 730.865C940.163 731.504 946.24 730.865 953.276 728.948C960.313 727.031 966.07 724.794 970.547 722.238L990.697 710.735C993.256 708.818 999.653 703.067 1009.89 693.481C1020.76 683.257 1030.36 672.712 1038.67 661.849C1047.63 650.346 1053.07 640.441 1054.98 632.133C1057.54 623.187 1052.11 619.033 1038.67 619.672C1037.39 619.033 1036.43 619.033 1035.79 619.672C1035.79 619.672 1035.15 619.672 1033.87 619.672C1026.84 622.228 1017.56 627.341 1006.05 635.009C995.175 642.678 986.219 649.068 979.183 654.18C970.867 661.21 962.551 669.198 954.236 678.144C946.56 687.091 939.203 696.038 932.167 704.984Z" fill="white"/>
<path d="M1432.73 739.492C1426.33 743.326 1418.66 747.48 1409.7 751.953C1401.39 756.427 1392.43 760.581 1382.84 764.415C1373.24 768.249 1363.65 771.125 1354.05 773.042C1345.1 774.32 1336.78 773.681 1329.1 771.125C1326.55 771.125 1323.67 769.847 1320.47 767.29C1317.91 764.095 1315.03 760.581 1311.83 756.746C1309.27 752.273 1306.72 748.119 1304.16 744.285C1302.24 739.812 1300.96 736.617 1300.32 734.699C1293.92 738.534 1285.93 743.326 1276.33 749.078C1267.38 754.19 1257.78 758.983 1247.55 763.456C1237.31 767.93 1227.08 771.125 1216.84 773.042C1206.61 774.959 1197.65 774.32 1189.98 771.125C1185.5 771.125 1180.7 767.61 1175.58 760.581C1171.1 753.551 1167.91 748.439 1165.99 745.244C1164.07 741.409 1161.83 736.617 1159.27 730.865C1156.07 724.475 1154.79 719.043 1155.43 714.57C1155.43 712.013 1158.31 706.901 1164.07 699.233C1170.47 691.564 1177.82 683.257 1186.14 674.31C1194.45 664.725 1202.77 656.097 1211.08 648.429C1219.4 640.121 1226.76 632.772 1233.15 626.382C1240.19 619.992 1244.67 616.796 1246.59 616.796C1249.78 616.796 1253.94 619.353 1259.06 624.465C1264.82 628.938 1268.65 632.133 1270.57 634.05C1272.49 636.607 1276.01 641.08 1281.13 647.47C1286.25 653.222 1288.16 657.695 1286.89 660.89C1286.89 661.529 1286.57 662.168 1285.93 662.807C1284.65 665.363 1282.73 667.6 1280.17 669.517C1278.25 670.795 1276.33 672.393 1274.41 674.31C1269.29 679.422 1264.5 684.215 1260.02 688.688C1255.54 693.162 1251.06 697.955 1246.59 703.067L1221.64 736.617C1236.35 734.699 1248.82 731.504 1259.06 727.031C1269.29 722.558 1278.57 717.126 1286.89 710.735C1295.84 704.345 1304.16 696.996 1311.83 688.688C1319.51 679.742 1328.14 670.156 1337.74 659.932C1339.66 657.375 1345.1 651.305 1354.05 641.719C1363.65 632.133 1373.56 622.228 1383.8 612.004C1394.67 601.14 1404.59 591.554 1413.54 583.247C1423.14 574.3 1428.89 569.827 1430.81 569.827C1434.01 569.827 1438.17 572.383 1443.29 577.496C1449.04 581.969 1452.88 585.164 1454.8 587.081C1456.72 589.637 1460.24 594.111 1465.35 600.501C1470.47 606.252 1472.39 610.726 1471.11 613.921C1471.11 614.56 1470.79 615.199 1470.15 615.838C1468.87 618.394 1466.95 620.631 1464.4 622.548C1462.48 623.826 1460.56 625.423 1458.64 627.341C1447.12 638.204 1437.85 647.79 1430.81 656.097L1382.84 710.735L1360.77 736.617C1375.48 734.699 1387.31 731.504 1396.27 727.031C1405.86 722.558 1414.18 717.445 1421.22 711.694C1428.89 705.304 1435.93 697.955 1442.33 689.647C1449.36 681.34 1457.36 672.393 1466.31 662.807C1468.23 660.251 1473.99 654.18 1483.59 644.595C1493.18 634.37 1503.41 623.826 1514.29 612.962C1525.16 601.459 1535.08 591.554 1544.03 583.247C1553.63 574.3 1559.39 569.827 1561.31 569.827C1564.5 569.827 1568.98 572.383 1574.74 577.496C1580.5 581.969 1584.33 585.164 1586.25 587.081C1588.17 589.637 1591.69 594.111 1596.81 600.501C1601.92 606.252 1603.84 610.726 1602.56 613.921C1602.56 614.56 1602.24 614.879 1601.6 614.879C1601.6 614.879 1601.6 615.199 1601.6 615.838C1600.33 618.394 1598.41 620.631 1595.85 622.548C1593.29 623.826 1591.05 625.423 1589.13 627.341C1584.01 632.453 1579.22 637.246 1574.74 641.719C1570.26 646.192 1565.78 650.985 1561.31 656.097L1514.29 710.735L1492.22 736.617C1499.9 735.338 1508.85 732.782 1519.09 728.948C1529.32 724.475 1539.56 720.001 1549.79 715.528C1560.03 710.416 1569.94 705.304 1579.54 700.191C1589.13 694.44 1597.45 689.647 1604.48 685.813C1611.52 681.34 1615.36 679.742 1616 681.02C1617.28 682.298 1620.48 685.493 1625.59 690.606C1626.87 691.884 1627.19 692.842 1626.55 693.481C1625.91 694.12 1625.27 695.079 1624.63 696.357C1623.35 697.635 1622.07 698.594 1620.8 699.233C1619.52 699.872 1618.24 700.83 1616.96 702.108C1608.64 708.499 1597.77 716.487 1584.33 726.072C1570.9 735.019 1556.83 743.646 1542.12 751.953C1527.4 759.622 1512.69 765.693 1497.98 770.166C1483.27 774.639 1470.79 774.959 1460.56 771.125C1458 771.125 1455.12 769.847 1451.92 767.29C1449.36 764.734 1446.8 761.859 1444.25 758.663C1441.69 754.829 1439.13 751.314 1436.57 748.119C1434.65 744.285 1433.37 741.409 1432.73 739.492Z" fill="white"/>
<path d="M1729.38 737.575C1722.99 741.409 1715.31 745.883 1706.36 750.995C1697.4 756.107 1688.13 760.581 1678.53 764.415C1668.94 768.249 1659.34 771.125 1649.75 773.042C1640.15 774.32 1631.51 773.681 1623.84 771.125C1619.36 771.125 1614.56 767.61 1609.45 760.581C1604.33 753.551 1601.13 748.439 1599.85 745.244C1597.29 741.409 1594.73 736.617 1592.17 730.865C1589.62 724.475 1588.66 719.043 1589.3 714.57C1589.3 712.013 1592.17 706.901 1597.93 699.233C1603.69 691.564 1610.09 683.576 1617.12 675.269C1624.8 666.961 1631.83 659.293 1638.23 652.263C1645.27 645.234 1650.07 640.441 1652.62 637.885C1654.54 635.968 1659.02 631.494 1666.06 624.465C1673.09 616.796 1680.77 609.128 1689.09 601.459C1697.4 593.152 1705.08 585.803 1712.11 579.413C1719.15 573.022 1723.63 569.827 1725.55 569.827C1728.75 569.827 1732.9 572.383 1738.02 577.496C1743.78 581.969 1747.62 585.164 1749.53 587.081C1752.09 589.637 1755.61 594.111 1760.09 600.501C1765.21 606.252 1767.13 610.726 1765.85 613.921V615.838C1764.57 618.394 1762.65 620.631 1760.09 622.548C1757.53 623.826 1755.29 625.423 1753.37 627.341C1748.26 632.453 1743.46 637.246 1738.98 641.719C1734.5 646.192 1730.02 650.985 1725.55 656.097L1678.53 710.735L1655.5 736.617C1677.89 733.421 1696.76 725.753 1712.11 713.611C1727.47 700.83 1742.5 686.452 1757.21 670.476C1765.53 660.251 1775.44 649.388 1786.96 637.885C1788.87 635.968 1793.35 631.494 1800.39 624.465C1807.42 616.796 1814.78 609.128 1822.46 601.459C1830.77 593.152 1838.45 585.803 1845.49 579.413C1852.52 573.022 1857 569.827 1858.92 569.827C1862.12 569.827 1866.27 572.383 1871.39 577.496C1877.15 581.969 1880.99 585.164 1882.91 587.081C1884.83 589.637 1888.02 594.111 1892.5 600.501C1897.62 606.252 1899.54 610.726 1898.26 613.921V615.838C1896.98 618.394 1895.06 620.631 1892.5 622.548C1890.58 623.826 1888.66 625.423 1886.74 627.341C1881.63 632.453 1876.83 637.246 1872.35 641.719C1867.87 646.192 1863.08 650.985 1857.96 656.097L1812.86 710.735L1789.83 736.617C1797.51 735.338 1806.47 732.782 1816.7 728.948C1826.93 724.475 1837.17 720.001 1847.4 715.528C1857.64 710.416 1867.23 705.304 1876.19 700.191C1885.78 694.44 1893.78 689.647 1900.18 685.813C1907.85 681.34 1912.33 679.742 1913.61 681.02C1914.89 682.298 1918.41 685.493 1924.17 690.606C1924.17 691.245 1923.53 693.162 1922.25 696.357L1913.61 702.108C1905.3 708.499 1894.42 716.487 1880.99 726.072C1868.19 735.019 1854.44 743.646 1839.73 751.953C1825.02 759.622 1810.3 765.693 1795.59 770.166C1780.88 774.639 1768.4 774.959 1758.17 771.125C1755.61 771.125 1752.73 769.847 1749.53 767.29C1746.98 764.734 1744.42 761.859 1741.86 758.663C1739.3 754.829 1736.74 750.995 1734.18 747.161C1732.26 743.326 1730.66 740.131 1729.38 737.575Z" fill="white"/>
<path d="M1842.11 298.778C1837.23 296.772 1831.35 294.982 1824.46 293.41C1818.59 291.382 1812.7 289.593 1806.8 288.041C1789.09 283.862 1770.37 279.9 1750.64 276.155C1731.9 272.431 1712.65 269.172 1692.87 266.378C1607.83 254.127 1517.57 246.53 1422.09 243.586C1327.61 240.662 1236.49 239.952 1148.75 241.455C1037.1 242.936 926.691 249.443 817.512 260.975C708.332 272.508 601.941 287.909 498.339 307.177C432.944 319.623 369.477 333.3 307.939 348.207C296.821 351.309 285.205 354.4 273.092 357.481C261.973 360.582 250.842 363.922 239.7 367.499L238.207 367.468L207.969 345.407C211.052 343.567 215.131 341.747 220.205 339.948C226.299 337.694 230.875 335.885 233.934 334.52C253.21 327.779 272.959 321.524 293.181 315.755C314.423 309.531 335.154 303.535 355.376 297.766C399.85 285.36 446.737 274.432 496.038 264.984C567.527 250.284 640.908 237.529 716.18 226.717C816.551 212.144 918.218 201.407 1021.18 194.506C1125.16 187.151 1229.96 183.385 1335.56 183.207C1368.42 183.416 1403.76 183.915 1441.57 184.704C1480.41 185.038 1519.19 186.323 1557.93 188.56C1596.66 190.796 1634.35 193.963 1671 198.061C1708.64 202.18 1743.24 207.426 1774.78 213.798C1786.6 216.426 1798.88 219.778 1811.62 223.853C1824.38 227.453 1835.63 231.497 1845.36 235.986C1848.27 237.475 1851.17 239.203 1854.06 241.168C1857.94 243.153 1860.84 244.881 1862.75 246.349L1936.76 317.896C1905.65 341.534 1864.75 361.872 1814.06 378.911C1764.36 395.971 1710.3 410.796 1651.87 423.387C1594.46 435.524 1535.16 445.716 1473.97 453.963C1412.8 461.735 1355.19 468.153 1301.13 473.216C1211.06 481.338 1120.1 487.298 1028.25 491.096C936.408 494.895 844.649 497.029 752.977 497.497C721.085 497.785 689.702 497.844 658.829 497.676C627.981 497.033 597.656 495.924 567.852 494.35L552.925 494.039C544.964 493.872 536.519 493.458 527.587 492.796C518.656 492.133 510.72 491.491 503.779 490.87C496.862 489.774 492.931 488.739 491.985 487.767L470.652 460.761L568.66 420.951L771.521 427.881C843.144 429.851 915.301 431.118 987.992 431.682C1063.67 432.309 1140.92 431.301 1219.76 428.66C1299.61 425.563 1377.14 419.323 1452.34 409.939C1527.54 400.554 1598.47 387.033 1665.13 369.375C1731.79 351.718 1790.78 328.185 1842.11 298.778Z" fill="white"/>
<path d="M529.521 428.049C505.214 450.415 481.226 473.421 457.558 497.065C433.89 520.071 124.017 863.235 100.988 886.241L35.7418 960.05H33.8227C33.1831 960.05 32.8632 959.73 32.8632 959.091C29.6649 957.813 26.1467 954.618 22.3086 949.506C18.4706 944.393 14.6325 938.962 10.7945 933.21C7.59613 927.459 4.71759 921.708 2.1589 915.956C0.239878 909.566 -0.399796 904.773 0.239878 901.578C0.239878 899.661 5.35727 892.951 15.592 881.448C26.4665 869.306 39.5798 854.928 54.932 838.313C70.9238 821.698 374.72 483.965 393.271 465.433L447.003 411.753L491.141 367.66L515.129 343.696L589.97 270.845L664.812 197.994C675.687 188.409 686.881 184.894 698.395 187.45C700.954 187.45 704.792 188.728 709.909 191.285C711.189 191.285 712.788 192.243 714.707 194.16C716.626 194.16 721.104 196.077 728.14 199.912C735.176 203.746 742.213 208.219 749.249 213.331C756.286 217.805 762.043 222.597 766.52 227.71C771.638 232.183 773.237 235.059 771.318 236.337C738.695 259.342 707.031 282.667 676.326 306.312C645.622 329.317 615.557 353.281 586.132 378.204L529.521 428.049Z" fill="white"/>
</svg>
