<svg width="229" height="202" viewBox="0 0 229 202" fill="none" xmlns="http://www.w3.org/2000/svg">
<path d="M140.451 182.298C165.317 163.326 201.2 133.624 216.153 109.869C227.342 92.1225 230.982 70.1357 226.116 49.6926C215.718 3.12508 158.14 -15.9035 122.275 15.3032C120.258 17.0467 118.398 18.9796 116.49 20.9643C115.711 21.7743 114.923 22.5928 114.113 23.4106C113.303 22.5928 112.516 21.7741 111.737 20.9642C109.828 18.9796 107.969 17.0467 105.952 15.3032C70.0868 -15.9035 12.5089 3.12508 2.11107 49.6926C-2.75553 70.1357 0.884575 92.1225 12.0737 109.869C27.0268 133.624 62.91 163.326 87.7755 182.298C94.704 187.586 114.113 201.359 114.113 201.359C114.113 201.359 133.523 187.586 140.451 182.298Z" fill="#F23F43"/>
</svg>
