<svg width="256" height="256" viewBox="0 0 256 256" fill="none" xmlns="http://www.w3.org/2000/svg">
<path d="M256 118.447L252.412 98.2204L185.964 109.864L244.415 76.2029L234.1 58.365L175.65 92.0256L219.076 40.4525L203.23 27.1673L159.879 78.8152L182.975 15.5242L163.616 8.43383L140.52 71.7994V0H119.89V71.7994L95.2993 4.32888L75.8657 11.3446L100.531 78.8152L54.2645 23.8088L38.4934 37.0939L84.6856 92.0256L22.4234 56.126L12.1086 73.9639L74.3708 109.864L3.58775 97.3994L0 117.7L70.7831 130.164L0 142.629L3.58775 162.929L74.3708 150.465L12.1086 186.365L22.4234 204.203L84.6856 168.303L38.4934 223.31L54.2645 236.52L100.531 181.514L75.8657 248.984L95.2993 256L119.89 188.529V255.925H140.52V188.529L163.616 251.895L182.975 244.879L159.879 181.514L203.23 233.162L219.076 219.876L175.65 168.303L234.1 201.964L244.415 184.126L186.039 150.465L252.412 162.183L256 141.882L189.627 130.164L256 118.447Z" fill="#FFDA53"/>
</svg>
